
<svg width="1206.9825927734375px" height="95.3100112915039px" xmlns:xlink="http://www.w3.org/1999/xlink"
     xmlns="http://www.w3.org/2000/svg" viewBox="-353.4912963867188 27.34499435424805 1206.9825927734375 95.3100112915039" style="background: none;" preserveAspectRatio="xMidYMid">

  <g transform="translate(-185.82998776435852, 90.10999965667725)">
    <use xlink:href="#texte" fill="white" stroke-width="3" stroke="white"></use>
    <g fill="#9d1030">
      <path id="texte" d="M3.03 0L3.03-28.21L25.83-28.21L25.83-21.44L12.10-21.44L12.10-16.61L23.90-16.61L23.90-10.13L12.10-10.13L12.10 0L3.03 0ZM38.25-24.19L30.09-24.19L30.09-29.73L38.25-29.73L38.25-24.19ZM38.25 0L30.09 0L30.09-21.65L38.25-21.65L38.25 0ZM54.65-22.14L54.65-22.14Q60.60-22.14 63.73-19.35L63.73-19.35L63.73-19.35Q66.87-16.56 66.87-10.82L66.87-10.82L66.87-9.43L50.63-9.43L50.63-9.43Q50.63-7.09 51.68-5.90L51.68-5.90L51.68-5.90Q52.73-4.71 54.98-4.71L54.98-4.71L54.98-4.71Q57.03-4.71 57.99-5.58L57.99-5.58L57.99-5.58Q58.96-6.44 58.96-7.87L58.96-7.87L66.87-7.87L66.87-7.87Q66.87-3.94 63.88-1.72L63.88-1.72L63.88-1.72Q60.89 0.49 55.15 0.49L55.15 0.49L55.15 0.49Q49.12 0.49 45.80-2.32L45.80-2.32L45.80-2.32Q42.48-5.13 42.48-10.82L42.48-10.82L42.48-10.82Q42.48-16.40 45.72-19.27L45.72-19.27L45.72-19.27Q48.95-22.14 54.65-22.14L54.65-22.14ZM54.98-16.93L54.98-16.93Q51.13-16.93 50.68-13.28L50.68-13.28L58.63-13.28L58.63-13.28Q58.63-14.96 57.67-15.95L57.67-15.95L57.67-15.95Q56.70-16.93 54.98-16.93L54.98-16.93ZM83.97-22.18L83.97-22.18Q84.91-22.18 85.65-21.96L85.65-21.96L85.65-21.96Q86.39-21.73 86.39-21.69L86.39-21.69L86.39-14.84L83.76-14.84L83.76-14.84Q81.22-14.84 80.09-13.53L80.09-13.53L80.09-13.53Q78.97-12.22 78.97-9.63L78.97-9.63L78.97 0L70.81 0L70.81-21.65L77.49-21.65L78.02-18.37L78.02-18.37Q78.76-20.25 80.36-21.22L80.36-21.22L80.36-21.22Q81.96-22.18 83.97-22.18L83.97-22.18ZM99.30-22.14L99.30-22.14Q103.65-22.14 106.66-20.44L106.66-20.44L106.66-20.44Q109.68-18.74 109.68-15.17L109.68-15.17L102.09-15.17L102.09-15.17Q102.09-16.36 101.02-16.85L101.02-16.85L101.02-16.85Q100.29-17.26 99.18-17.26L99.18-17.26L99.18-17.26Q96.23-17.26 96.23-15.87L96.23-15.87L96.23-15.87Q96.23-15.09 97.25-14.76L97.25-14.76L97.25-14.76Q98.28-14.43 100.61-14.06L100.61-14.06L100.61-14.06Q103.48-13.65 105.41-13.10L105.41-13.10L105.41-13.10Q107.34-12.55 108.77-11.13L108.77-11.13L108.77-11.13Q110.21-9.72 110.21-7.18L110.21-7.18L110.21-7.18Q110.21-3.03 107.11-1.27L107.11-1.27L107.11-1.27Q104.02 0.49 99.02 0.49L99.02 0.49L99.02 0.49Q96.15 0.49 93.60-0.31L93.60-0.31L93.60-0.31Q91.06-1.11 89.46-2.79L89.46-2.79L89.46-2.79Q87.86-4.47 87.86-7.05L87.86-7.05L95.45-7.05L95.45-6.89L95.45-6.89Q95.49-5.49 96.62-4.94L96.62-4.94L96.62-4.94Q97.74-4.39 99.02-4.39L99.02-4.39L99.02-4.39Q102.42-4.39 102.42-5.99L102.42-5.99L102.42-5.99Q102.42-6.81 101.35-7.18L101.35-7.18L101.35-7.18Q100.29-7.54 97.87-7.95L97.87-7.95L97.87-7.95Q94.96-8.45 93.09-9.02L93.09-9.02L93.09-9.02Q91.23-9.59 89.83-10.97L89.83-10.97L89.83-10.97Q88.44-12.34 88.44-14.80L88.44-14.80L88.44-14.80Q88.44-18.78 91.45-20.46L91.45-20.46L91.45-20.46Q94.46-22.14 99.30-22.14L99.30-22.14ZM150.10 0L143.46 0L142.76-3.08L142.76-3.08Q140.38 0.49 135.87 0.49L135.87 0.49L135.87 0.49Q131.49 0.49 129.11-2.38L129.11-2.38L129.11-2.38Q126.73-5.25 126.73-10.87L126.73-10.87L126.73-10.87Q126.73-16.44 129.11-19.29L129.11-19.29L129.11-19.29Q131.49-22.14 135.87-22.14L135.87-22.14L135.87-22.14Q139.61-22.14 141.94-19.64L141.94-19.64L141.94-29.73L150.10-29.73L150.10 0ZM138.42-16.11L138.42-16.11Q134.89-16.11 134.89-11.89L134.89-11.89L134.89-9.72L134.89-9.72Q134.89-5.54 138.42-5.54L138.42-5.54L138.42-5.54Q140.22-5.54 141.12-6.81L141.12-6.81L141.12-6.81Q142.02-8.08 142.02-10.13L142.02-10.13L142.02-11.48L142.02-11.48Q142.02-13.53 141.12-14.82L141.12-14.82L141.12-14.82Q140.22-16.11 138.42-16.11L138.42-16.11ZM161.62-22.18L159.65-16.32L156.87-16.32L154.94-22.18L154.94-28.21L161.62-28.21L161.62-22.18ZM186.02-23.78L180.69-23.78L177.65-26.94L174.58-23.78L169.33-23.78L175.07-29.73L180.28-29.73L186.02-23.78ZM177.65-22.14L177.65-22.14Q183.60-22.14 186.73-19.35L186.73-19.35L186.73-19.35Q189.87-16.56 189.87-10.82L189.87-10.82L189.87-9.43L173.64-9.43L173.64-9.43Q173.64-7.09 174.68-5.90L174.68-5.90L174.68-5.90Q175.73-4.71 177.98-4.71L177.98-4.71L177.98-4.71Q180.03-4.71 180.99-5.58L180.99-5.58L180.99-5.58Q181.96-6.44 181.96-7.87L181.96-7.87L189.87-7.87L189.87-7.87Q189.87-3.94 186.88-1.72L186.88-1.72L186.88-1.72Q183.89 0.49 178.15 0.49L178.15 0.49L178.15 0.49Q172.12 0.49 168.80-2.32L168.80-2.32L168.80-2.32Q165.48-5.13 165.48-10.82L165.48-10.82L165.48-10.82Q165.48-16.40 168.72-19.27L168.72-19.27L168.72-19.27Q171.95-22.14 177.65-22.14L177.65-22.14ZM177.98-16.93L177.98-16.93Q174.13-16.93 173.68-13.28L173.68-13.28L181.63-13.28L181.63-13.28Q181.63-14.96 180.67-15.95L180.67-15.95L180.67-15.95Q179.70-16.93 177.98-16.93L177.98-16.93ZM203.65-21.65L208.24-21.65L208.24-16.11L203.65-16.11L203.65-7.87L203.65-7.87Q203.65-6.40 204.14-5.72L204.14-5.72L204.14-5.72Q204.63-5.04 205.94-5.04L205.94-5.04L208.24-5.04L208.24-0.25L208.24-0.25Q207.26 0.08 205.70 0.29L205.70 0.29L205.70 0.29Q204.14 0.49 202.99 0.49L202.99 0.49L202.99 0.49Q199.38 0.49 197.44-0.82L197.44-0.82L197.44-0.82Q195.49-2.13 195.49-5.29L195.49-5.29L195.49-16.11L192.45-16.11L192.45-21.65L195.82-21.65L197.58-28.21L203.65-28.21L203.65-21.65ZM225.17-22.18L225.17-22.18Q226.12-22.18 226.85-21.96L226.85-21.96L226.85-21.96Q227.59-21.73 227.59-21.69L227.59-21.69L227.59-14.84L224.97-14.84L224.97-14.84Q222.43-14.84 221.30-13.53L221.30-13.53L221.30-13.53Q220.17-12.22 220.17-9.63L220.17-9.63L220.17 0L212.01 0L212.01-21.65L218.69-21.65L219.23-18.37L219.23-18.37Q219.97-20.25 221.56-21.22L221.56-21.22L221.56-21.22Q223.16-22.18 225.17-22.18L225.17-22.18ZM241.41-22.14L241.41-22.14Q247.35-22.14 250.49-19.35L250.49-19.35L250.49-19.35Q253.63-16.56 253.63-10.82L253.63-10.82L253.63-9.43L237.39-9.43L237.39-9.43Q237.39-7.09 238.44-5.90L238.44-5.90L238.44-5.90Q239.48-4.71 241.74-4.71L241.74-4.71L241.74-4.71Q243.79-4.71 244.75-5.58L244.75-5.58L244.75-5.58Q245.71-6.44 245.71-7.87L245.71-7.87L253.63-7.87L253.63-7.87Q253.63-3.94 250.63-1.72L250.63-1.72L250.63-1.72Q247.64 0.49 241.90 0.49L241.90 0.49L241.90 0.49Q235.87 0.49 232.55-2.32L232.55-2.32L232.55-2.32Q229.23-5.13 229.23-10.82L229.23-10.82L229.23-10.82Q229.23-16.40 232.47-19.27L232.47-19.27L232.47-19.27Q235.71-22.14 241.41-22.14L241.41-22.14ZM241.74-16.93L241.74-16.93Q237.88-16.93 237.43-13.28L237.43-13.28L245.39-13.28L245.39-13.28Q245.39-14.96 244.42-15.95L244.42-15.95L244.42-15.95Q243.46-16.93 241.74-16.93L241.74-16.93ZM281.92-22.14L281.92-22.14Q286.88-22.14 289.99-20.48L289.99-20.48L289.99-20.48Q293.11-18.82 293.11-15.09L293.11-15.09L293.11-6.64L293.11-6.64Q293.11-5.95 293.44-5.49L293.44-5.49L293.44-5.49Q293.77-5.04 294.42-5.04L294.42-5.04L295.90-5.04L295.90-0.33L295.90-0.33Q295.77-0.25 295.26-0.06L295.26-0.06L295.26-0.06Q294.75 0.12 293.81 0.31L293.81 0.31L293.81 0.31Q292.86 0.49 291.63 0.49L291.63 0.49L291.63 0.49Q289.26 0.49 287.72-0.23L287.72-0.23L287.72-0.23Q286.18-0.94 285.61-2.21L285.61-2.21L285.61-2.21Q284.05-0.98 282.12-0.25L282.12-0.25L282.12-0.25Q280.19 0.49 277.61 0.49L277.61 0.49L277.61 0.49Q269.99 0.49 269.99-5.58L269.99-5.58L269.99-5.58Q269.99-8.73 271.69-10.39L271.69-10.39L271.69-10.39Q273.39-12.05 276.59-12.67L276.59-12.67L276.59-12.67Q279.78-13.28 284.95-13.28L284.95-13.28L284.95-14.35L284.95-14.35Q284.95-15.62 284.07-16.28L284.07-16.28L284.07-16.28Q283.19-16.93 281.79-16.93L281.79-16.93L281.79-16.93Q280.52-16.93 279.60-16.48L279.60-16.48L279.60-16.48Q278.68-16.03 278.68-15.05L278.68-15.05L278.68-14.88L270.64-14.88L270.64-14.88Q270.60-15.09 270.60-15.46L270.60-15.46L270.60-15.46Q270.60-18.53 273.53-20.34L273.53-20.34L273.53-20.34Q276.46-22.14 281.92-22.14L281.92-22.14ZM284.95-9.43L284.95-9.43Q281.47-9.43 279.80-8.67L279.80-8.67L279.80-8.67Q278.14-7.91 278.14-6.64L278.14-6.64L278.14-6.64Q278.14-4.59 280.93-4.59L280.93-4.59L280.93-4.59Q282.53-4.59 283.74-5.45L283.74-5.45L283.74-5.45Q284.95-6.31 284.95-7.58L284.95-7.58L284.95-9.43ZM309.76-22.14L309.76-22.14Q315.09-22.14 318.39-19.86L318.39-19.86L318.39-19.86Q321.69-17.59 321.69-12.92L321.69-12.92L313.77-12.92L313.77-12.92Q313.77-16.61 309.76-16.61L309.76-16.61L309.76-16.61Q305.74-16.61 305.74-11.97L305.74-11.97L305.74-9.63L305.74-9.63Q305.74-5.04 309.92-5.04L309.92-5.04L309.92-5.04Q314.10-5.04 314.10-8.81L314.10-8.81L321.69-8.81L321.69-8.81Q321.69-4.10 318.39-1.80L318.39-1.80L318.39-1.80Q315.09 0.49 309.76 0.49L309.76 0.49L309.76 0.49Q304.06 0.49 300.82-2.38L300.82-2.38L300.82-2.38Q297.58-5.25 297.58-10.82L297.58-10.82L297.58-10.82Q297.58-16.40 300.82-19.27L300.82-19.27L300.82-19.27Q304.06-22.14 309.76-22.14L309.76-22.14ZM335.75-21.65L340.34-21.65L340.34-16.11L335.75-16.11L335.75-7.87L335.75-7.87Q335.75-6.40 336.24-5.72L336.24-5.72L336.24-5.72Q336.73-5.04 338.05-5.04L338.05-5.04L340.34-5.04L340.34-0.25L340.34-0.25Q339.36 0.08 337.80 0.29L337.80 0.29L337.80 0.29Q336.24 0.49 335.09 0.49L335.09 0.49L335.09 0.49Q331.49 0.49 329.54-0.82L329.54-0.82L329.54-0.82Q327.59-2.13 327.59-5.29L327.59-5.29L327.59-16.11L324.56-16.11L324.56-21.65L327.92-21.65L329.68-28.21L335.75-28.21L335.75-21.65ZM355.31-22.14L355.31-22.14Q361.25-22.14 364.39-19.35L364.39-19.35L364.39-19.35Q367.52-16.56 367.52-10.82L367.52-10.82L367.52-9.43L351.29-9.43L351.29-9.43Q351.29-7.09 352.33-5.90L352.33-5.90L352.33-5.90Q353.38-4.71 355.63-4.71L355.63-4.71L355.63-4.71Q357.68-4.71 358.65-5.58L358.65-5.58L358.65-5.58Q359.61-6.44 359.61-7.87L359.61-7.87L367.52-7.87L367.52-7.87Q367.52-3.94 364.53-1.72L364.53-1.72L364.53-1.72Q361.54 0.49 355.80 0.49L355.80 0.49L355.80 0.49Q349.77 0.49 346.45-2.32L346.45-2.32L346.45-2.32Q343.13-5.13 343.13-10.82L343.13-10.82L343.13-10.82Q343.13-16.40 346.37-19.27L346.37-19.27L346.37-19.27Q349.61-22.14 355.31-22.14L355.31-22.14ZM355.63-16.93L355.63-16.93Q351.78-16.93 351.33-13.28L351.33-13.28L359.28-13.28L359.28-13.28Q359.28-14.96 358.32-15.95L358.32-15.95L358.32-15.95Q357.36-16.93 355.63-16.93L355.63-16.93ZM393.85 0L387.16 0L386.63-3.28L386.63-3.28Q385.36-1.52 383.29-0.51L383.29-0.51L383.29-0.51Q381.22 0.49 378.92 0.49L378.92 0.49L378.92 0.49Q375.15 0.49 373.26-1.60L373.26-1.60L373.26-1.60Q371.38-3.69 371.38-7.63L371.38-7.63L371.38-21.65L379.54-21.65L379.54-8.61L379.54-8.61Q379.54-7.22 380.25-6.38L380.25-6.38L380.25-6.38Q380.97-5.54 382.28-5.54L382.28-5.54L382.28-5.54Q383.80-5.54 384.74-6.52L384.74-6.52L384.74-6.52Q385.69-7.50 385.69-8.94L385.69-8.94L385.69-21.65L393.85-21.65L393.85 0ZM411.97-22.18L411.97-22.18Q412.91-22.18 413.65-21.96L413.65-21.96L413.65-21.96Q414.39-21.73 414.39-21.69L414.39-21.69L414.39-14.84L411.76-14.84L411.76-14.84Q409.22-14.84 408.09-13.53L408.09-13.53L408.09-13.53Q406.97-12.22 406.97-9.63L406.97-9.63L406.97 0L398.81 0L398.81-21.65L405.49-21.65L406.02-18.37L406.02-18.37Q406.76-20.25 408.36-21.22L408.36-21.22L408.36-21.22Q409.96-22.18 411.97-22.18L411.97-22.18ZM427.30-22.14L427.30-22.14Q431.65-22.14 434.66-20.44L434.66-20.44L434.66-20.44Q437.68-18.74 437.68-15.17L437.68-15.17L430.09-15.17L430.09-15.17Q430.09-16.36 429.02-16.85L429.02-16.85L429.02-16.85Q428.29-17.26 427.18-17.26L427.18-17.26L427.18-17.26Q424.23-17.26 424.23-15.87L424.23-15.87L424.23-15.87Q424.23-15.09 425.25-14.76L425.25-14.76L425.25-14.76Q426.28-14.43 428.61-14.06L428.61-14.06L428.61-14.06Q431.48-13.65 433.41-13.10L433.41-13.10L433.41-13.10Q435.34-12.55 436.77-11.13L436.77-11.13L436.77-11.13Q438.21-9.72 438.21-7.18L438.21-7.18L438.21-7.18Q438.21-3.03 435.11-1.27L435.11-1.27L435.11-1.27Q432.02 0.49 427.01 0.49L427.01 0.49L427.01 0.49Q424.14 0.49 421.60-0.31L421.60-0.31L421.60-0.31Q419.06-1.11 417.46-2.79L417.46-2.79L417.46-2.79Q415.86-4.47 415.86-7.05L415.86-7.05L423.45-7.05L423.45-6.89L423.45-6.89Q423.49-5.49 424.62-4.94L424.62-4.94L424.62-4.94Q425.74-4.39 427.01-4.39L427.01-4.39L427.01-4.39Q430.42-4.39 430.42-5.99L430.42-5.99L430.42-5.99Q430.42-6.81 429.35-7.18L429.35-7.18L429.35-7.18Q428.29-7.54 425.87-7.95L425.87-7.95L425.87-7.95Q422.96-8.45 421.09-9.02L421.09-9.02L421.09-9.02Q419.22-9.59 417.83-10.97L417.83-10.97L417.83-10.97Q416.44-12.34 416.44-14.80L416.44-14.80L416.44-14.80Q416.44-18.78 419.45-20.46L419.45-20.46L419.45-20.46Q422.46-22.14 427.30-22.14L427.30-22.14ZM478.10 0L471.46 0L470.76-3.08L470.76-3.08Q468.38 0.49 463.87 0.49L463.87 0.49L463.87 0.49Q459.49 0.49 457.11-2.38L457.11-2.38L457.11-2.38Q454.73-5.25 454.73-10.87L454.73-10.87L454.73-10.87Q454.73-16.44 457.11-19.29L457.11-19.29L457.11-19.29Q459.49-22.14 463.87-22.14L463.87-22.14L463.87-22.14Q467.61-22.14 469.94-19.64L469.94-19.64L469.94-29.73L478.10-29.73L478.10 0ZM466.42-16.11L466.42-16.11Q462.89-16.11 462.89-11.89L462.89-11.89L462.89-9.72L462.89-9.72Q462.89-5.54 466.42-5.54L466.42-5.54L466.42-5.54Q468.22-5.54 469.12-6.81L469.12-6.81L469.12-6.81Q470.02-8.08 470.02-10.13L470.02-10.13L470.02-11.48L470.02-11.48Q470.02-13.53 469.12-14.82L469.12-14.82L469.12-14.82Q468.22-16.11 466.42-16.11L466.42-16.11ZM494.25-22.14L494.25-22.14Q500.20-22.14 503.34-19.35L503.34-19.35L503.34-19.35Q506.47-16.56 506.47-10.82L506.47-10.82L506.47-9.43L490.24-9.43L490.24-9.43Q490.24-7.09 491.28-5.90L491.28-5.90L491.28-5.90Q492.33-4.71 494.58-4.71L494.58-4.71L494.58-4.71Q496.63-4.71 497.60-5.58L497.60-5.58L497.60-5.58Q498.56-6.44 498.56-7.87L498.56-7.87L506.47-7.87L506.47-7.87Q506.47-3.94 503.48-1.72L503.48-1.72L503.48-1.72Q500.49 0.49 494.75 0.49L494.75 0.49L494.75 0.49Q488.72 0.49 485.40-2.32L485.40-2.32L485.40-2.32Q482.08-5.13 482.08-10.82L482.08-10.82L482.08-10.82Q482.08-16.40 485.32-19.27L485.32-19.27L485.32-19.27Q488.56-22.14 494.25-22.14L494.25-22.14ZM494.58-16.93L494.58-16.93Q490.73-16.93 490.28-13.28L490.28-13.28L498.23-13.28L498.23-13.28Q498.23-14.96 497.27-15.95L497.27-15.95L497.27-15.95Q496.30-16.93 494.58-16.93L494.58-16.93ZM532.51 0L524.35 0L524.35-29.73L532.51-29.73L532.51 0ZM548.42-22.14L548.42-22.14Q553.38-22.14 556.49-20.48L556.49-20.48L556.49-20.48Q559.61-18.82 559.61-15.09L559.61-15.09L559.61-6.64L559.61-6.64Q559.61-5.95 559.94-5.49L559.94-5.49L559.94-5.49Q560.26-5.04 560.92-5.04L560.92-5.04L562.40-5.04L562.40-0.33L562.40-0.33Q562.27-0.25 561.76-0.06L561.76-0.06L561.76-0.06Q561.25 0.12 560.31 0.31L560.31 0.31L560.31 0.31Q559.36 0.49 558.13 0.49L558.13 0.49L558.13 0.49Q555.75 0.49 554.22-0.23L554.22-0.23L554.22-0.23Q552.68-0.94 552.11-2.21L552.11-2.21L552.11-2.21Q550.55-0.98 548.62-0.25L548.62-0.25L548.62-0.25Q546.69 0.49 544.11 0.49L544.11 0.49L544.11 0.49Q536.49 0.49 536.49-5.58L536.49-5.58L536.49-5.58Q536.49-8.73 538.19-10.39L538.19-10.39L538.19-10.39Q539.89-12.05 543.09-12.67L543.09-12.67L543.09-12.67Q546.28-13.28 551.45-13.28L551.45-13.28L551.45-14.35L551.45-14.35Q551.45-15.62 550.57-16.28L550.57-16.28L550.57-16.28Q549.69-16.93 548.29-16.93L548.29-16.93L548.29-16.93Q547.02-16.93 546.10-16.48L546.10-16.48L546.10-16.48Q545.18-16.03 545.18-15.05L545.18-15.05L545.18-14.88L537.14-14.88L537.14-14.88Q537.10-15.09 537.10-15.46L537.10-15.46L537.10-15.46Q537.10-18.53 540.03-20.34L540.03-20.34L540.03-20.34Q542.96-22.14 548.42-22.14L548.42-22.14ZM551.45-9.43L551.45-9.43Q547.97-9.43 546.30-8.67L546.30-8.67L546.30-8.67Q544.64-7.91 544.64-6.64L544.64-6.64L544.64-6.64Q544.64-4.59 547.43-4.59L547.43-4.59L547.43-4.59Q549.03-4.59 550.24-5.45L550.24-5.45L550.24-5.45Q551.45-6.31 551.45-7.58L551.45-7.58L551.45-9.43ZM593.02 0L584.46 0L576.25-21.65L585.03-21.65L589.01-8.16L589.29-8.16L593.27-21.65L601.31-21.65L593.02 0ZM612.21-24.19L604.05-24.19L604.05-29.73L612.21-29.73L612.21-24.19ZM612.21 0L604.05 0L604.05-21.65L612.21-21.65L612.21 0ZM628.61-22.14L628.61-22.14Q634.56-22.14 637.69-19.35L637.69-19.35L637.69-19.35Q640.83-16.56 640.83-10.82L640.83-10.82L640.83-9.43L624.59-9.43L624.59-9.43Q624.59-7.09 625.64-5.90L625.64-5.90L625.64-5.90Q626.69-4.71 628.94-4.71L628.94-4.71L628.94-4.71Q630.99-4.71 631.95-5.58L631.95-5.58L631.95-5.58Q632.92-6.44 632.92-7.87L632.92-7.87L640.83-7.87L640.83-7.87Q640.83-3.94 637.84-1.72L637.84-1.72L637.84-1.72Q634.84 0.49 629.10 0.49L629.10 0.49L629.10 0.49Q623.08 0.49 619.76-2.32L619.76-2.32L619.76-2.32Q616.44-5.13 616.44-10.82L616.44-10.82L616.44-10.82Q616.44-16.40 619.67-19.27L619.67-19.27L619.67-19.27Q622.91-22.14 628.61-22.14L628.61-22.14ZM628.94-16.93L628.94-16.93Q625.09-16.93 624.64-13.28L624.64-13.28L632.59-13.28L632.59-13.28Q632.59-14.96 631.63-15.95L631.63-15.95L631.63-15.95Q630.66-16.93 628.94-16.93L628.94-16.93ZM670.92-24.27L665.68-24.27L669.49-29.73L677.36-29.73L677.44-29.56L670.92-24.27ZM669.61-22.14L669.61-22.14Q675.56-22.14 678.69-19.35L678.69-19.35L678.69-19.35Q681.83-16.56 681.83-10.82L681.83-10.82L681.83-9.43L665.59-9.43L665.59-9.43Q665.59-7.09 666.64-5.90L666.64-5.90L666.64-5.90Q667.69-4.71 669.94-4.71L669.94-4.71L669.94-4.71Q671.99-4.71 672.95-5.58L672.95-5.58L672.95-5.58Q673.92-6.44 673.92-7.87L673.92-7.87L681.83-7.87L681.83-7.87Q681.83-3.94 678.84-1.72L678.84-1.72L678.84-1.72Q675.84 0.49 670.10 0.49L670.10 0.49L670.10 0.49Q664.08 0.49 660.76-2.32L660.76-2.32L660.76-2.32Q657.44-5.13 657.44-10.82L657.44-10.82L657.44-10.82Q657.44-16.40 660.67-19.27L660.67-19.27L660.67-19.27Q663.91-22.14 669.61-22.14L669.61-22.14ZM669.94-16.93L669.94-16.93Q666.09-16.93 665.64-13.28L665.64-13.28L673.59-13.28L673.59-13.28Q673.59-14.96 672.63-15.95L672.63-15.95L672.63-15.95Q671.66-16.93 669.94-16.93L669.94-16.93ZM695.61-21.65L700.20-21.65L700.20-16.11L695.61-16.11L695.61-7.87L695.61-7.87Q695.61-6.40 696.10-5.72L696.10-5.72L696.10-5.72Q696.59-5.04 697.90-5.04L697.90-5.04L700.20-5.04L700.20-0.25L700.20-0.25Q699.21 0.08 697.66 0.29L697.66 0.29L697.66 0.29Q696.10 0.49 694.95 0.49L694.95 0.49L694.95 0.49Q691.34 0.49 689.39-0.82L689.39-0.82L689.39-0.82Q687.45-2.13 687.45-5.29L687.45-5.29L687.45-16.11L684.41-16.11L684.41-21.65L687.78-21.65L689.54-28.21L695.61-28.21L695.61-21.65ZM726.36 0L719.67 0L719.14-3.28L719.14-3.28Q717.87-1.52 715.80-0.51L715.80-0.51L715.80-0.51Q713.73 0.49 711.43 0.49L711.43 0.49L711.43 0.49Q707.66 0.49 705.77-1.60L705.77-1.60L705.77-1.60Q703.89-3.69 703.89-7.63L703.89-7.63L703.89-21.65L712.05-21.65L712.05-8.61L712.05-8.61Q712.05-7.22 712.76-6.38L712.76-6.38L712.76-6.38Q713.48-5.54 714.79-5.54L714.79-5.54L714.79-5.54Q716.31-5.54 717.25-6.52L717.25-6.52L717.25-6.52Q718.20-7.50 718.20-8.94L718.20-8.94L718.20-21.65L726.36-21.65L726.36 0ZM753.70 0L747.06 0L746.36-3.08L746.36-3.08Q743.99 0.49 739.48 0.49L739.48 0.49L739.48 0.49Q735.09 0.49 732.71-2.38L732.71-2.38L732.71-2.38Q730.33-5.25 730.33-10.87L730.33-10.87L730.33-10.87Q730.33-16.44 732.71-19.29L732.71-19.29L732.71-19.29Q735.09-22.14 739.48-22.14L739.48-22.14L739.48-22.14Q743.21-22.14 745.54-19.64L745.54-19.64L745.54-29.73L753.70-29.73L753.70 0ZM742.02-16.11L742.02-16.11Q738.49-16.11 738.49-11.89L738.49-11.89L738.49-9.72L738.49-9.72Q738.49-5.54 742.02-5.54L742.02-5.54L742.02-5.54Q743.82-5.54 744.72-6.81L744.72-6.81L744.72-6.81Q745.63-8.08 745.63-10.13L745.63-10.13L745.63-11.48L745.63-11.48Q745.63-13.53 744.72-14.82L744.72-14.82L744.72-14.82Q743.82-16.11 742.02-16.11L742.02-16.11ZM767.11-24.19L758.95-24.19L758.95-29.73L767.11-29.73L767.11-24.19ZM767.11 0L758.95 0L758.95-21.65L767.11-21.65L767.11 0ZM783.02-22.14L783.02-22.14Q787.98-22.14 791.10-20.48L791.10-20.48L791.10-20.48Q794.21-18.82 794.21-15.09L794.21-15.09L794.21-6.64L794.21-6.64Q794.21-5.95 794.54-5.49L794.54-5.49L794.54-5.49Q794.87-5.04 795.52-5.04L795.52-5.04L797.00-5.04L797.00-0.33L797.00-0.33Q796.88-0.25 796.36-0.06L796.36-0.06L796.36-0.06Q795.85 0.12 794.91 0.31L794.91 0.31L794.91 0.31Q793.96 0.49 792.74 0.49L792.74 0.49L792.74 0.49Q790.36 0.49 788.82-0.23L788.82-0.23L788.82-0.23Q787.28-0.94 786.71-2.21L786.71-2.21L786.71-2.21Q785.15-0.98 783.22-0.25L783.22-0.25L783.22-0.25Q781.30 0.49 778.71 0.49L778.71 0.49L778.71 0.49Q771.09 0.49 771.09-5.58L771.09-5.58L771.09-5.58Q771.09-8.73 772.79-10.39L772.79-10.39L772.79-10.39Q774.49-12.05 777.69-12.67L777.69-12.67L777.69-12.67Q780.89-13.28 786.05-13.28L786.05-13.28L786.05-14.35L786.05-14.35Q786.05-15.62 785.17-16.28L785.17-16.28L785.17-16.28Q784.29-16.93 782.89-16.93L782.89-16.93L782.89-16.93Q781.62-16.93 780.70-16.48L780.70-16.48L780.70-16.48Q779.78-16.03 779.78-15.05L779.78-15.05L779.78-14.88L771.74-14.88L771.74-14.88Q771.70-15.09 771.70-15.46L771.70-15.46L771.70-15.46Q771.70-18.53 774.63-20.34L774.63-20.34L774.63-20.34Q777.56-22.14 783.02-22.14L783.02-22.14ZM786.05-9.43L786.05-9.43Q782.57-9.43 780.91-8.67L780.91-8.67L780.91-8.67Q779.25-7.91 779.25-6.64L779.25-6.64L779.25-6.64Q779.25-4.59 782.03-4.59L782.03-4.59L782.03-4.59Q783.63-4.59 784.84-5.45L784.84-5.45L784.84-5.45Q786.05-6.31 786.05-7.58L786.05-7.58L786.05-9.43ZM814.59-22.14L814.59-22.14Q818.36-22.14 820.25-20.05L820.25-20.05L820.25-20.05Q822.13-17.96 822.13-14.02L822.13-14.02L822.13 0L813.97 0L813.97-13.04L813.97-13.04Q813.97-14.43 813.26-15.27L813.26-15.27L813.26-15.27Q812.54-16.11 811.23-16.11L811.23-16.11L811.23-16.11Q809.71-16.11 808.77-15.13L808.77-15.13L808.77-15.13Q807.82-14.15 807.82-12.71L807.82-12.71L807.82 0L799.66 0L799.66-21.65L806.35-21.65L806.88-18.37L806.88-18.37Q808.15-20.09 810.22-21.12L810.22-21.12L810.22-21.12Q812.29-22.14 814.59-22.14L814.59-22.14ZM836.85-21.65L841.44-21.65L841.44-16.11L836.85-16.11L836.85-7.87L836.85-7.87Q836.85-6.40 837.34-5.72L837.34-5.72L837.34-5.72Q837.83-5.04 839.15-5.04L839.15-5.04L841.44-5.04L841.44-0.25L841.44-0.25Q840.46 0.08 838.90 0.29L838.90 0.29L838.90 0.29Q837.34 0.49 836.19 0.49L836.19 0.49L836.19 0.49Q832.59 0.49 830.64-0.82L830.64-0.82L830.64-0.82Q828.69-2.13 828.69-5.29L828.69-5.29L828.69-16.11L825.66-16.11L825.66-21.65L829.02-21.65L830.78-28.21L836.85-28.21L836.85-21.65ZM856.41-22.14L856.41-22.14Q862.35-22.14 865.49-19.35L865.49-19.35L865.49-19.35Q868.63-16.56 868.63-10.82L868.63-10.82L868.63-9.43L852.39-9.43L852.39-9.43Q852.39-7.09 853.44-5.90L853.44-5.90L853.44-5.90Q854.48-4.71 856.74-4.71L856.74-4.71L856.74-4.71Q858.79-4.71 859.75-5.58L859.75-5.58L859.75-5.58Q860.71-6.44 860.71-7.87L860.71-7.87L868.63-7.87L868.63-7.87Q868.63-3.94 865.63-1.72L865.63-1.72L865.63-1.72Q862.64 0.49 856.90 0.49L856.90 0.49L856.90 0.49Q850.87 0.49 847.55-2.32L847.55-2.32L847.55-2.32Q844.23-5.13 844.23-10.82L844.23-10.82L844.23-10.82Q844.23-16.40 847.47-19.27L847.47-19.27L847.47-19.27Q850.71-22.14 856.41-22.14L856.41-22.14ZM856.74-16.93L856.74-16.93Q852.88-16.93 852.43-13.28L852.43-13.28L860.38-13.28L860.38-13.28Q860.38-14.96 859.42-15.95L859.42-15.95L859.42-15.95Q858.46-16.93 856.74-16.93L856.74-16.93Z"></path>
    </g>
  </g>

</svg>
